<?xml version="1.0" encoding="utf-8"?>
<!-- Generator: Adobe Illustrator 23.0.6, SVG Export Plug-In . SVG Version: 6.00 Build 0)  -->
<svg version="1.1" id="Ebene_1" xmlns="http://www.w3.org/2000/svg" xmlns:xlink="http://www.w3.org/1999/xlink" x="0px" y="0px"
	 viewBox="0 0 54.57 30.42" style="enable-background:new 0 0 54.57 30.42;" xml:space="preserve">
<style type="text/css">
	.st0{fill:#378ADC;}
</style>
<g>
	<path class="st0" d="M42.79,15.19c0,1.58-0.5,3.47-2.91,3.47h-1.01c-1.9,0-2.94-1.24-2.94-3.49V9.92h-1.86v5.26
		c0,3.28,1.83,5.32,4.79,5.32h1.01c2.95,0,4.79-2.04,4.79-5.32V9.92h-1.86V15.19z"/>
	<path class="st0" d="M21.87,14.71v1.01c0,2.95,2.04,4.79,5.32,4.79h5.26v-1.86h-5.27c-1.58,0-3.47-0.5-3.47-2.91v-1.01
		c0-1.9,1.24-2.94,3.49-2.94h5.26V9.92h-5.26C23.9,9.92,21.87,11.75,21.87,14.71z"/>
	<path class="st0" d="M15.71,9.92h-1.01c-2.95,0-4.79,2.04-4.79,5.32v5.26h1.86v-5.27c0-1.58,0.5-3.47,2.91-3.47h1.01
		c1.89,0,2.94,1.24,2.94,3.49v5.26h1.86v-5.26C20.5,11.96,18.66,9.92,15.71,9.92z"/>
	<path class="st0" d="M11.8,9.49v-4.3H9.96v6.49C10.39,10.66,11.06,9.91,11.8,9.49z"/>
</g>
</svg>
